<svg xmlns="http://www.w3.org/2000/svg" width="30.526" height="32.097" viewBox="0 0 30.526 32.097"><g transform="translate(-26.116 -24.9)"><path d="M55.917,28.93a.964.964,0,0,0-1.137.7L48.528,55.043H29.612a8.168,8.168,0,0,1-1.188-2.088H47.117a.964.964,0,0,0,.932-.728l6.386-26.145A.958.958,0,0,0,53.5,24.9H33.456a.964.964,0,0,0-.932.7L26.119,51.786a.141.141,0,0,1,0,.051.868.868,0,0,0,0,.128v.077a.868.868,0,0,0,0,.128.441.441,0,0,0,0,.083.083.083,0,0,1,0,.038,11.55,11.55,0,0,0,2.446,4.47A.945.945,0,0,0,29.2,57H49.282a.964.964,0,0,0,.932-.741l6.405-26.184a.964.964,0,0,0-.7-1.143ZM34.2,26.816h18.1L46.369,51.039h-18.1Z" transform="translate(0 0)" fill="#fff"/><path d="M54.657,31.719a.639.639,0,0,0-.639-.639H40.639a.639.639,0,1,0,0,1.279H54.017A.639.639,0,0,0,54.657,31.719Z" transform="translate(-5.028 -2.228)" fill="#fff"/><path d="M51.492,34.44H43a.639.639,0,1,0,0,1.279h8.492a.639.639,0,1,0,0-1.279Z" transform="translate(-5.877 -3.448)" fill="#fff"/></g></svg>