<svg xmlns="http://www.w3.org/2000/svg" width="116.32" height="60.5" viewBox="0 0 116.32 60.5"><g transform="translate(45.852 0)"><path d="M59.05,0h8.035C74.2,0,78.73,4.146,78.73,11.265S74.173,22.622,67.085,22.622H59.05Zm7.81,17.856c3.827,0,6.211-2.282,6.211-6.614S70.633,4.72,66.86,4.72H64.585V17.856Z" transform="translate(-59.05)" fill="#f37021"/><path d="M89.44,0h5.543V22.622H89.44Z" transform="translate(-65.847)" fill="#f37021"/><path d="M99.75,0h6.017l3.983,12.879c.443,1.421.854,3.633.854,3.633h.062s.411-2.213.854-3.633L115.572,0h5.916l-7.973,22.622h-5.76Z" transform="translate(-68.153)" fill="#f37021"/><path d="M130.93,0h14.176V4.743h-8.641V8.858h6.894v4.751h-6.894v4.247h9.083V22.6H130.93Z" transform="translate(-75.127)" fill="#f37021"/></g><g transform="translate(45.852 25.406)"><path d="M59.05,32.74h5.085a7.9,7.9,0,0,1,4.068.776,3.54,3.54,0,0,1,1.553,2.508,39.888,39.888,0,0,1,.287,5.722,40.011,40.011,0,0,1-.287,5.706A3.556,3.556,0,0,1,68.2,49.967a7.9,7.9,0,0,1-4.068.776H59.05ZM64.1,47.2a2.1,2.1,0,0,0,1.25-.279,2,2,0,0,0,.388-1.25c.062-.66.093-1.972.093-3.928a39.216,39.216,0,0,0-.093-3.928,1.933,1.933,0,0,0-.4-1.258A2.15,2.15,0,0,0,64.1,36.3h-.893V47.172Z" transform="translate(-59.05 -32.729)" fill="#d9471f"/><path d="M75.86,50.8V32.74h8.99v3.594h-4.8v3.54H84.19v3.594H80.052V47.2h4.8v3.6Z" transform="translate(-62.81 -32.729)" fill="#d9471f"/><path d="M90.17,50.8V32.74h8.99v3.594h-4.8v3.54h4.146v3.594H94.362V47.2h4.8v3.6Z" transform="translate(-66.01 -32.729)" fill="#d9471f"/><path d="M104.49,32.737H110.7a5.31,5.31,0,0,1,2.973.683,3.346,3.346,0,0,1,1.359,2,13.973,13.973,0,0,1,.357,3.563,14.751,14.751,0,0,1-.326,3.439,3.509,3.509,0,0,1-1.343,2.057,4.992,4.992,0,0,1-3.02.776h-2.018v5.543H104.49Zm5.132,8.92a2.492,2.492,0,0,0,1.048-.155.939.939,0,0,0,.4-.683,10.971,10.971,0,0,0,.1-1.84,13.66,13.66,0,0,0-.085-1.832.877.877,0,0,0-.4-.683,2.329,2.329,0,0,0-1.033-.155h-.97v5.349Z" transform="translate(-69.213 -32.725)" fill="#d9471f"/><path d="M120.69,50.8V32.74h8.99v3.594h-4.8v3.54h4.146v3.594h-4.146V47.2h4.8v3.6Z" transform="translate(-72.837 -32.729)" fill="#d9471f"/><path d="M142.135,50.794l-1.6-6.086h-1.343v6.086H135V32.737h6.343a5.52,5.52,0,0,1,2.989.66,3.168,3.168,0,0,1,1.366,1.91,13.694,13.694,0,0,1,.342,3.416,13.028,13.028,0,0,1-.334,3.261,3.167,3.167,0,0,1-1.32,1.933l2.073,6.878Zm-.776-9.72a.831.831,0,0,0,.4-.629,9.315,9.315,0,0,0,.1-1.692,11.256,11.256,0,0,0-.085-1.677.776.776,0,0,0-.4-.621,2.8,2.8,0,0,0-1.064-.14h-1.118v4.906h1.1a2.609,2.609,0,0,0,1.048-.155Z" transform="translate(-76.037 -32.725)" fill="#d9471f"/></g><path d="M5.12,65.45H6.766V74.6H5.12Z" transform="translate(-1.136 -14.639)" fill="#fff"/><path d="M9.986,69.661H9.14v-1.3h.885V66.47h1.553v1.887h1.475v1.3H11.578v2.546a1.157,1.157,0,0,0,1.335,1.242,1.258,1.258,0,0,0,.3,0v1.436a2.835,2.835,0,0,1-.5,0A2.386,2.386,0,0,1,10,72.409Z" transform="translate(-2.035 -14.867)" fill="#fff"/><path d="M23.009,68.569a3.307,3.307,0,0,1,2.5.978l-.714,1.126a2.531,2.531,0,0,0-1.7-.714,1.949,1.949,0,0,0-1.972,2.05,2,2,0,0,0,2.034,2.057,2.973,2.973,0,0,0,1.91-.838l.629,1.157a3.688,3.688,0,0,1-2.686,1.064,3.439,3.439,0,1,1,0-6.878Z" transform="translate(-4.368 -15.336)" fill="#fff"/><path d="M32.009,68.57a3.439,3.439,0,1,1-3.439,3.439A3.439,3.439,0,0,1,32.009,68.57Zm0,5.489a2.05,2.05,0,1,0-1.933-2.05,1.949,1.949,0,0,0,1.933,2.05Z" transform="translate(-6.381 -15.337)" fill="#fff"/><path d="M39.18,68.77h1.615v3.882c0,.776.21,1.343,1.009,1.343,1.18,0,1.824-1.048,1.824-2.22v-3h1.623v6.568H43.7V74.1h0a2.508,2.508,0,0,1-2.259,1.366c-1.4,0-2.259-.706-2.259-2.5Z" transform="translate(-8.754 -15.381)" fill="#fff"/><path d="M49.19,65.45H50.8v6.855c0,.722.241.9.66.9a2.118,2.118,0,0,0,.248,0v1.436a3.765,3.765,0,0,1-.512,0c-.893,0-2-.233-2-2.119Z" transform="translate(-10.993 -14.639)" fill="#fff"/><path d="M56.329,67.872a2.042,2.042,0,0,1,1.879.838h0V65.45h1.615V74.6H58.27V74.06a3.655,3.655,0,0,1,0-.427h0a2.267,2.267,0,0,1-2.042,1.118c-1.762,0-2.888-1.405-2.888-3.439S54.629,67.872,56.329,67.872Zm.311,5.5c.838,0,1.63-.621,1.63-2.073,0-1.017-.536-2.026-1.623-2.026-.893,0-1.63.776-1.63,2.034S55.677,73.376,56.639,73.376Z" transform="translate(-11.921 -14.639)" fill="#fff"/><path d="M68,65.45h1.63v2.826a4.659,4.659,0,0,1,0,.551h0a2.267,2.267,0,0,1,1.949-.955c1.762,0,2.888,1.405,2.888,3.439s-1.265,3.439-2.989,3.439a2.329,2.329,0,0,1-1.925-.978h0a4.2,4.2,0,0,1,0,.45V74.6H68Zm3.191,7.926c.893,0,1.63-.776,1.63-2.042s-.66-2.057-1.623-2.057c-.838,0-1.63.621-1.63,2.073a1.786,1.786,0,0,0,1.63,2.026Z" transform="translate(-15.2 -14.639)" fill="#fff"/><path d="M80.765,68.57a2.828,2.828,0,0,1,2.88,3.105c0,.194-.039.629-.039.629H79.12a1.848,1.848,0,0,0,1.949,1.739,3.206,3.206,0,0,0,1.879-.722l.621,1.172a4.045,4.045,0,0,1-2.585.955,3.346,3.346,0,0,1-3.525-3.439,3.237,3.237,0,0,1,3.307-3.439Zm1.25,2.663a1.258,1.258,0,0,0-1.289-1.366,1.553,1.553,0,0,0-1.553,1.366Z" transform="translate(-17.314 -15.336)" fill="#fff"/><path d="M91.48,65.45h5.434v1.436H93.126v2.391h3.051v1.428H93.126v2.461h3.983V74.6H91.48Z" transform="translate(-20.452 -14.639)" fill="#fff"/><path d="M104.754,65.249a4.9,4.9,0,0,1,3.369,1.165l-.823,1.234a3.882,3.882,0,0,0-2.407-.877,2.958,2.958,0,0,0-3.105,3.144,3.043,3.043,0,0,0,3.043,3.268,3.385,3.385,0,0,0,2.267-.947V71.165h-1.39V69.713h2.849v4.813h-1.4V73.7h0a3.835,3.835,0,0,1-2.632.978,4.479,4.479,0,0,1-4.441-4.736,4.6,4.6,0,0,1,4.666-4.7Z" transform="translate(-22.375 -14.593)" fill="#fff"/><path d="M115.565,64.86h1.39L113.7,75.007H112.32Z" transform="translate(-25.113 -14.507)" fill="#fff"/><path d="M120.1,65.45h5.434v1.436h-3.781v2.391H124.8v1.428h-3.051v2.461h3.983V74.6H120.1Z" transform="translate(-26.853 -14.639)" fill="#fff"/><path d="M132.171,68.569a3.439,3.439,0,1,1-2.518.959A3.439,3.439,0,0,1,132.171,68.569Zm0,5.489a2.05,2.05,0,1,0-1.941-2.05,1.941,1.941,0,0,0,1.956,2.05Z" transform="translate(-28.754 -15.336)" fill="#fff"/><path d="M139.82,65.45h3.105a4.573,4.573,0,1,1,0,9.145H139.82Zm3,7.717a3.131,3.131,0,0,0,0-6.257h-1.359V73.19Z" transform="translate(-31.264 -14.639)" fill="#fff"/><path d="M13.548,47.06h0Z" transform="translate(-3.019 -10.526)" fill="#fff"/><path d="M1.845,43.025a7.445,7.445,0,0,1-.365-2.748h0a8.889,8.889,0,0,1,.776-3.206,7.53,7.53,0,0,1,7.065-4.736,7.522,7.522,0,0,1,1.1.078,19.6,19.6,0,0,1,2.663.66,40.261,40.261,0,0,0,7.763,1.421h.194v.194a4.658,4.658,0,0,0,1,2.694,9.122,9.122,0,0,0,1.242,1.335.349.349,0,0,0,.435,0,8.538,8.538,0,0,0,.675-.536.272.272,0,0,0,0-.411,11.288,11.288,0,0,1-1.265-1.351,2.942,2.942,0,0,1-.411-3.105,3.284,3.284,0,0,1,.722-1.064,18.151,18.151,0,0,0,1.832-2.329l.179-.3a8.54,8.54,0,0,0,1.033-2.787,20.092,20.092,0,0,0,.1-8.066,3.548,3.548,0,0,0-.629-1.39c-.543-.714-1.871-2.143-1.949-2.228C20.9,11.886,16.471,10.5,17.217.163A.179.179,0,0,0,17.077,0H15.936a.194.194,0,0,0-.171.179c-.373,11.591,3.765,12.421,7.2,16.008a16.21,16.21,0,0,1,1.755,2.119,2.927,2.927,0,0,1,.443,1.25h0a25.091,25.091,0,0,1,.14,4.774,9.813,9.813,0,0,1-2.787,6.832h0a4.316,4.316,0,0,0-1.149,1.692l-.047.124H20.9a40.129,40.129,0,0,1-7.375-1.351,21.093,21.093,0,0,0-2.88-.706,9.456,9.456,0,0,0-1.335-.054A8.928,8.928,0,0,0,.952,36.534,10.31,10.31,0,0,0,0,40.121a1.638,1.638,0,0,0,0,.342,8.447,8.447,0,0,0,.388,2.865A10.271,10.271,0,0,0,3.8,47.985a.233.233,0,0,0,.349-.1l.38-1.11a.194.194,0,0,0-.1-.241,6.482,6.482,0,0,1-2.585-3.509Z" transform="translate(0.012 0)" fill="#fff"/><path d="M27.341,5.6a7.118,7.118,0,0,0,4,5.085,5.372,5.372,0,0,0,2.523.528c1.025,0,1.987-.776,3.105-1.5,0,0,1.095-.7,1.553-1.048a16.6,16.6,0,0,1,3.035-1.755,12.841,12.841,0,0,1,4.021-.7,8.54,8.54,0,0,1,.994.062l.4.062.512.1.217.054a8.415,8.415,0,0,1,1.234.466.116.116,0,0,0,.171-.1V5.628a.241.241,0,0,0-.155-.225,9.316,9.316,0,0,0-2.189-.559,8.718,8.718,0,0,0-1.188-.078h-.093a14.215,14.215,0,0,0-4.495.776,17.491,17.491,0,0,0-3.276,1.863c-.5.349-2.655,1.91-3.043,2.088a2.329,2.329,0,0,1-1.095.272,4.285,4.285,0,0,1-1.6-.419,5.586,5.586,0,0,1-3.183-3.882V5.388A24.6,24.6,0,0,1,28.568.21.148.148,0,0,0,28.436,0H27.287a.171.171,0,0,0-.163.155,25.448,25.448,0,0,0,.21,5.38Z" transform="translate(-6.045 0)" fill="#fff"/><path d="M44.695,51.236a.085.085,0,0,0-.148-.062A22.465,22.465,0,0,1,42.8,52.726l-.07.047a13.586,13.586,0,0,1-1.894,1.157l-.124.062-.582.272-.256.109c-.194.078-.38.163-.574.233h0c-.4.148-.815.279-1.227.4l-.411.116-.5.124-.5.109-.443.093c-.3.054-.613.109-.916.147l-.411.054-.66.085h-.4q-.466.047-.955.07a18.935,18.935,0,0,1-6.164-.66h0c-2.546-.691-4.379-3.292-6.568-4.953a15.705,15.705,0,0,0-9.122-3.105,4.767,4.767,0,0,0-1.63.435,2.034,2.034,0,0,0-.543.326l-.07.054-.155.132-.171.155-.054.047c-2.034,1.98-.73,5.434.419,6.987a10.17,10.17,0,0,0,4.658,3.23.3.3,0,0,0,.4-.279V57.113a.194.194,0,0,0-.171-.194,6.133,6.133,0,0,1-3.54-2.422c-3.105-4.13-.38-5.628.078-5.8a2.329,2.329,0,0,1,.776-.155,13.974,13.974,0,0,1,8.3,2.9c2.189,1.669,4.309,4.379,6.987,5.139a18.042,18.042,0,0,0,6.56.706,15.644,15.644,0,0,0,1.607-.132l.311-.039c.458-.054.908-.116,1.359-.194h.21a16.971,16.971,0,0,0,8.268-3.719.287.287,0,0,0,.093-.2Z" transform="translate(-1.63 -10.532)" fill="#fff"/></svg>