<svg xmlns="http://www.w3.org/2000/svg" width="40" height="84.15" viewBox="0 0 40 84.15"><g transform="translate(-2948 -6307.972)"><g transform="translate(0.5 -10.853)"><path d="M20.455.5H0A.5.5,0,0,1-.5,0,.5.5,0,0,1,0-.5H20.455a.5.5,0,0,1,.5.5A.5.5,0,0,1,20.455.5Z" transform="translate(2957.5 6319.324)" fill="#a8a8a8"/><path d="M20.455.5H0A.5.5,0,0,1-.5,0,.5.5,0,0,1,0-.5H20.455a.5.5,0,0,1,.5.5A.5.5,0,0,1,20.455.5Z" transform="translate(2957.5 6402.475)" fill="#a8a8a8"/><path d="M0,83.65a.5.5,0,0,1-.5-.5V0A.5.5,0,0,1,0-.5.5.5,0,0,1,.5,0V83.15A.5.5,0,0,1,0,83.65Z" transform="translate(2967.5 6319.324)" fill="#a8a8a8"/></g><g transform="translate(0 -7.142)"><rect width="40" height="29.073" transform="translate(2948 6348.643)" fill="#8abfc6"/><path d="M40,.5H0v-1H40Z" transform="translate(2948 6360.338)" fill="#fff"/></g></g></svg>