<svg xmlns="http://www.w3.org/2000/svg" width="40" height="132.656" viewBox="0 0 40 132.656"><g transform="translate(-2948 -6266.39)"><g transform="translate(0.5 -52.435)"><path d="M20.455.5H0A.5.5,0,0,1-.5,0,.5.5,0,0,1,0-.5H20.455a.5.5,0,0,1,.5.5A.5.5,0,0,1,20.455.5Z" transform="translate(2957.5 6319.324)" fill="#a8a8a8"/><path d="M20.455.5H0A.5.5,0,0,1-.5,0,.5.5,0,0,1,0-.5H20.455a.5.5,0,0,1,.5.5A.5.5,0,0,1,20.455.5Z" transform="translate(2957.5 6450.98)" fill="#a8a8a8"/><path d="M0,132.156a.5.5,0,0,1-.5-.5V0A.5.5,0,0,1,0-.5.5.5,0,0,1,.5,0V131.656A.5.5,0,0,1,0,132.156Z" transform="translate(2967.5 6319.324)" fill="#a8a8a8"/></g><g transform="translate(0 -6.2)"><rect width="40" height="37.079" transform="translate(2948 6348.643)" fill="#002c3d"/><path d="M40,.5H0v-1H40Z" transform="translate(2948 6368.2)" fill="#fff"/></g></g></svg>