<svg xmlns="http://www.w3.org/2000/svg" width="40" height="152.612" viewBox="0 0 40 152.612"><g transform="translate(-2948 -6246.374)"><g transform="translate(0.5 -72.451)"><path d="M20.455.5H0A.5.5,0,0,1-.5,0,.5.5,0,0,1,0-.5H20.455a.5.5,0,0,1,.5.5A.5.5,0,0,1,20.455.5Z" transform="translate(2957.5 6319.324)" fill="#a8a8a8"/><path d="M20.455.5H0A.5.5,0,0,1-.5,0,.5.5,0,0,1,0-.5H20.455a.5.5,0,0,1,.5.5A.5.5,0,0,1,20.455.5Z" transform="translate(2957.5 6470.937)" fill="#a8a8a8"/><path d="M0,152.112a.5.5,0,0,1-.5-.5V0A.5.5,0,0,1,0-.5.5.5,0,0,1,.5,0V151.612A.5.5,0,0,1,0,152.112Z" transform="translate(2967.5 6319.324)" fill="#a8a8a8"/></g><g transform="translate(0 0.173)"><rect width="40" height="35.033" transform="translate(2948 6348.643)" fill="#315b71"/><path d="M40,.5H0v-1H40Z" transform="translate(2948 6367.964)" fill="#fff"/></g></g></svg>