<svg xmlns="http://www.w3.org/2000/svg" width="40" height="57.017" viewBox="0 0 40 57.017"><g transform="translate(-2948 -6318.824)"><g transform="translate(0.5)"><path d="M20.455.5H0A.5.5,0,0,1-.5,0,.5.5,0,0,1,0-.5H20.455a.5.5,0,0,1,.5.5A.5.5,0,0,1,20.455.5Z" transform="translate(2957.5 6319.324)" fill="#a8a8a8"/><path d="M20.455.5H0A.5.5,0,0,1-.5,0,.5.5,0,0,1,0-.5H20.455a.5.5,0,0,1,.5.5A.5.5,0,0,1,20.455.5Z" transform="translate(2957.5 6375.341)" fill="#a8a8a8"/><path d="M0,56.517a.5.5,0,0,1-.5-.5V0A.5.5,0,0,1,0-.5.5.5,0,0,1,.5,0V56.017A.5.5,0,0,1,0,56.517Z" transform="translate(2967.5 6319.324)" fill="#a8a8a8"/></g><rect width="40" height="21.931" transform="translate(2948 6348.643)" fill="#8abfc6"/><path d="M40,.5H0v-1H40Z" transform="translate(2948 6363.5)" fill="#fff"/></g></svg>