<svg xmlns="http://www.w3.org/2000/svg" width="40" height="147.951" viewBox="0 0 40 147.951"><g transform="translate(-2948 -6254.488)"><g transform="translate(0.5 -64.336)"><path d="M20.455.5H0A.5.5,0,0,1-.5,0,.5.5,0,0,1,0-.5H20.455a.5.5,0,0,1,.5.5A.5.5,0,0,1,20.455.5Z" transform="translate(2957.5 6319.324)" fill="#a8a8a8"/><path d="M20.455.5H0A.5.5,0,0,1-.5,0,.5.5,0,0,1,0-.5H20.455a.5.5,0,0,1,.5.5A.5.5,0,0,1,20.455.5Z" transform="translate(2957.5 6466.275)" fill="#a8a8a8"/><path d="M0,147.451a.5.5,0,0,1-.5-.5V0A.5.5,0,0,1,0-.5.5.5,0,0,1,.5,0V146.951A.5.5,0,0,1,0,147.451Z" transform="translate(2967.5 6319.324)" fill="#a8a8a8"/></g><g transform="translate(0 -4.2)"><rect width="40" height="44.075" transform="translate(2948 6348.643)" fill="#002c3d"/><path d="M40,.5H0v-1H40Z" transform="translate(2948 6372.2)" fill="#fff"/></g></g></svg>