<svg xmlns="http://www.w3.org/2000/svg" xmlns:xlink="http://www.w3.org/1999/xlink" width="123" height="131.425" viewBox="0 0 123 131.425"><defs><clipPath id="a"><path d="M0,73.706H123V-57.719H0Z" transform="translate(0 57.719)" fill="none"/></clipPath></defs><g transform="translate(0 57.719)"><g transform="translate(0 -57.719)" clip-path="url(#a)"><g transform="translate(7.074 -11.385)"><path d="M16.157,76.56c-1.091,0-2.245-.052-3.468-.166A29,29,0,0,1-7.346,65.717a23.494,23.494,0,0,1-5.028-18.382C-10.307,34.122,4.849,32,8.488,31.683c3.869-7.76,11.389-13.564,21.8-16.806a59.939,59.939,0,0,1,14.532-2.6c5.991-7.011,1.876-22.3,1.006-25.245C31.979-20.077,34.37-57.208,34.482-58.8a1.254,1.254,0,0,1,1.334-1.148,1.241,1.241,0,0,1,1.168,1.314,134.2,134.2,0,0,0,.389,19.96c1.341,13.2,4.8,21.4,10.016,23.719a1.244,1.244,0,0,1,.676.747c.264.813,6.394,19.974-1.749,28.549a1.26,1.26,0,0,1-.9.392c-.264,0-26.57.585-34.97,18.644a1.257,1.257,0,0,1-1.1.722c-.7.02-17.216.692-19.24,13.616A21.094,21.094,0,0,0-5.37,64.2a26.482,26.482,0,0,0,18.293,9.739c12.234,1.136,16.875-4.165,20.254-8.026.373-.428.729-.833,1.072-1.207a1.268,1.268,0,0,1,1.771-.089,1.218,1.218,0,0,1,.089,1.742c-.33.36-.672.749-1.031,1.161-3.206,3.666-7.9,9.04-18.922,9.04" transform="translate(12.652 59.954)" fill="#fff"/></g><g transform="translate(17.609 -11.385)"><path d="M11.8,71.78l-.1,0c-9.311-.7-18.266-2.933-20.7-14.47a8.754,8.754,0,0,1,1.387-7.334c3.16-4.231,9.75-4.93,10.028-4.957a1.269,1.269,0,0,1,1,.335c.141.137,15.9,13.1,48.85,3.108C66.58,44.117,78.138,34.217,83.978,21.3c5.132-11.355,5.242-23.86.3-34.3C73.16-36.5,49.257-28.981,48.246-28.65c-3.286,1.079-7.78,2.546-9.493-1.963-1.33-3.511-1.2-22.251-1.182-24.375a1.246,1.246,0,0,1,1.255-1.223h.011a1.244,1.244,0,0,1,1.243,1.245c-.073,8.163.139,21.155,1.025,23.489.74,1.954,2.234,1.835,6.346.487,1.1-.362,27.05-8.525,39.1,16.938C91.8-2.959,91.7,10.288,86.271,22.295,80.137,35.868,68.012,46.262,53.007,50.816,24.768,59.382,6.964,51.5,2.15,47.544c-1.48.241-5.695,1.15-7.737,3.894a6.349,6.349,0,0,0-.95,5.369c1.687,7.981,6.69,11.508,17.772,12.457,1.35-1.619,5.617-6.3,10.74-7.437a1.257,1.257,0,0,1,1.5.931,1.231,1.231,0,0,1-.947,1.473c-5.18,1.152-9.675,6.995-9.72,7.052a1.256,1.256,0,0,1-1,.5" transform="translate(9.244 56.211)" fill="#fff"/></g><g transform="translate(62.349 32.178)"><path d="M2.295,4.51A4.058,4.058,0,0,0,6.386.489,4.058,4.058,0,0,0,2.295-3.532,4.058,4.058,0,0,0-1.8.489,4.058,4.058,0,0,0,2.295,4.51" transform="translate(1.797 3.532)" fill="#f69358"/></g><g transform="translate(110.441 32.178)"><path d="M2.295,4.51A4.058,4.058,0,0,0,6.386.489,4.058,4.058,0,0,0,2.295-3.532,4.058,4.058,0,0,0-1.8.489,4.058,4.058,0,0,0,2.295,4.51" transform="translate(1.797 3.532)" fill="#f69358"/></g><g transform="translate(64.624 43.541)"><path d="M2.295,4.51A4.058,4.058,0,0,0,6.386.489,4.058,4.058,0,0,0,2.295-3.532,4.058,4.058,0,0,0-1.8.489,4.058,4.058,0,0,0,2.295,4.51" transform="translate(1.797 3.532)" fill="#f69358"/></g><g transform="translate(112.109 43.988)"><path d="M2.295,4.51A4.058,4.058,0,0,0,6.386.489,4.058,4.058,0,0,0,2.295-3.532,4.058,4.058,0,0,0-1.8.489,4.058,4.058,0,0,0,2.295,4.51" transform="translate(1.797 3.532)" fill="#f69358"/></g><g transform="translate(39.941 63.2)"><path d="M.007,2.433a4.071,4.071,0,0,0,4.4,3.693A4.049,4.049,0,0,0,8.166,1.8a4.071,4.071,0,0,0-4.4-3.693A4.046,4.046,0,0,0,.007,2.433" transform="translate(0.006 1.905)" fill="#f69358"/></g><g transform="translate(29.689 70.362)"><path d="M.007,2.433a4.071,4.071,0,0,0,4.4,3.693A4.049,4.049,0,0,0,8.166,1.8a4.071,4.071,0,0,0-4.4-3.693A4.046,4.046,0,0,0,.007,2.433" transform="translate(0.006 1.905)" fill="#f69358"/></g><g transform="translate(42.67 93.722)"><path d="M.007,2.433a4.071,4.071,0,0,0,4.4,3.693A4.049,4.049,0,0,0,8.166,1.8a4.071,4.071,0,0,0-4.4-3.693A4.046,4.046,0,0,0,.007,2.433" transform="translate(0.006 1.905)" fill="#f69358"/></g><g transform="translate(30.477 119.922)"><path d="M.007,2.433a4.071,4.071,0,0,0,4.4,3.693A4.049,4.049,0,0,0,8.166,1.8a4.071,4.071,0,0,0-4.4-3.693A4.046,4.046,0,0,0,.007,2.433" transform="translate(0.006 1.905)" fill="#f69358"/></g><g transform="translate(31.66 90.463)"><path d="M.007,2.433a4.071,4.071,0,0,0,4.4,3.693A4.049,4.049,0,0,0,8.166,1.8a4.071,4.071,0,0,0-4.4-3.693A4.046,4.046,0,0,0,.007,2.433" transform="translate(0.006 1.905)" fill="#f69358"/></g><g transform="translate(19.012 117.71)"><path d="M.007,2.433a4.071,4.071,0,0,0,4.4,3.693A4.049,4.049,0,0,0,8.166,1.8a4.071,4.071,0,0,0-4.4-3.693A4.046,4.046,0,0,0,.007,2.433" transform="translate(0.006 1.905)" fill="#f69358"/></g><g transform="translate(4.741 89.663)"><path d="M2.295,4.51A4.058,4.058,0,0,1-1.8.489,4.058,4.058,0,0,1,2.295-3.532,4.058,4.058,0,0,1,6.386.489,4.058,4.058,0,0,1,2.295,4.51" transform="translate(1.797 3.532)" fill="#f69358"/></g><g transform="translate(4.438 101.472)"><path d="M2.295,4.51A4.058,4.058,0,0,1-1.8.489,4.058,4.058,0,0,1,2.295-3.532,4.058,4.058,0,0,1,6.386.489,4.058,4.058,0,0,1,2.295,4.51" transform="translate(1.797 3.532)" fill="#f69358"/></g></g></g></svg>