<svg xmlns="http://www.w3.org/2000/svg" width="66" height="66" viewBox="0 0 66 66"><g transform="translate(-739 -365)"><path d="M-11.476,0h3.42l-4.617-13.585h-3.5L-20.786,0h3.42l.817-2.85h4.237ZM-14.4-10.488s.3,1.482.551,2.337l.76,2.641H-15.77l.779-2.641c.247-.855.551-2.337.551-2.337ZM-6.536,0h3.325V-6.327c0-.855-.152-2.318-.152-2.318h.038a24.306,24.306,0,0,0,1.14,2.318L1.6,0H4.94V-13.585H1.615v6.346c0,.855.152,2.318.152,2.318H1.729A24.306,24.306,0,0,0,.589-7.239l-3.762-6.346H-6.536ZM8.132,0h4.826c4.275,0,7.011-2.546,7.011-6.821s-2.736-6.764-7.011-6.764H8.132Zm3.325-2.85v-7.885h1.368c2.242,0,3.7,1.33,3.7,3.914,0,2.6-1.406,3.971-3.7,3.971Z" transform="translate(772 392)" fill="#fff"/><path d="M-14.33-7.24A7.321,7.321,0,0,0-6.85.24,7.321,7.321,0,0,0,.63-7.24a7.233,7.233,0,0,0-7.48-7.3A7.233,7.233,0,0,0-14.33-7.24Zm3.62,0a3.933,3.933,0,0,1,3.86-4.1,3.933,3.933,0,0,1,3.86,4.1A4.034,4.034,0,0,1-6.85-2.96,4.034,4.034,0,0,1-10.71-7.24ZM3.01,0h3.5V-4.82H8.15L10.69,0h3.9L11.81-5a8.2,8.2,0,0,0-.54-.86V-5.9a4.353,4.353,0,0,0,2.14-3.9,4.157,4.157,0,0,0-2.64-4.16,7.4,7.4,0,0,0-2.78-.34H3.01Zm3.5-7.82V-11.3H7.69c1.76,0,2.16.64,2.16,1.72A1.637,1.637,0,0,1,8.03-7.82Z" transform="translate(772 420)" fill="#fff"/><path d="M33,2A31.009,31.009,0,0,0,20.934,61.565,31.009,31.009,0,0,0,45.066,4.435,30.8,30.8,0,0,0,33,2m0-2A33,33,0,1,1,0,33,33,33,0,0,1,33,0Z" transform="translate(739 365)" fill="#fff"/><path d="M45,1H0V-1H45Z" transform="translate(749.5 399.5)" fill="#fff"/></g></svg>