<svg xmlns="http://www.w3.org/2000/svg" width="45.144" height="45.144" viewBox="0 0 45.144 45.144"><path d="M55.019,35.142h0a2.772,2.772,0,0,0-2.825,2.765V50.651a1.4,1.4,0,0,1-1.383,1.383H19.733a1.4,1.4,0,0,1-1.383-1.383V19.573a1.4,1.4,0,0,1,1.383-1.383H43.778a2.758,2.758,0,0,0,2.765-2.765v-.06A2.758,2.758,0,0,0,43.778,12.6H15.525A2.822,2.822,0,0,0,12.7,15.425V54.919a2.822,2.822,0,0,0,2.825,2.825H55.019a2.822,2.822,0,0,0,2.825-2.825V37.907A2.771,2.771,0,0,0,55.019,35.142Z" transform="translate(-12.7 -12.6)" fill="#f36f21"/></svg>