<svg xmlns="http://www.w3.org/2000/svg" width="38" height="38" viewBox="0 0 38 38"><g transform="translate(-31 -31)"><path d="M55.868,57.686a.34.34,0,0,0-.434-.025s-.053.046-.2.157a15,15,0,1,1,2.61-2.619c-.121.156-.186.233-.186.233a.331.331,0,0,0,.023.436l1,1a.667.667,0,0,0,.511.158A.893.893,0,0,1,59.417,57a2.493,2.493,0,0,1,1.851.731l7,7a2.5,2.5,0,0,1-3.536,3.536l-7-7a2.493,2.493,0,0,1-.73-1.88.893.893,0,0,1,.023-.209.632.632,0,0,0-.16-.495ZM46,57A11,11,0,1,0,35,46,11,11,0,0,0,46,57Zm2.253-12.75h3a1.75,1.75,0,0,1,0,3.5h-3a.5.5,0,0,0-.5.5v3a1.75,1.75,0,0,1-3.5,0v-3a.5.5,0,0,0-.5-.5h-3a1.75,1.75,0,0,1,0-3.5h3a.5.5,0,0,0,.5-.5v-3a1.75,1.75,0,0,1,3.5,0v3A.5.5,0,0,0,48.253,44.25Z" fill="#002c3d"/></g></svg>