<svg xmlns="http://www.w3.org/2000/svg" width="52.715" height="45.874" viewBox="0 0 52.715 45.874">
  <g transform="translate(-19.313 -18.213)">
    <g transform="translate(28.223 18.213)">
      <path class="check" d="M44.846,54.4,32.052,41.921a1.743,1.743,0,0,1,0-2.5l2.574-2.5a1.837,1.837,0,0,1,2.574,0l8.972,8.738L69.654,22.652a1.837,1.837,0,0,1,2.574,0l2.574,2.5a1.743,1.743,0,0,1,0,2.5L47.5,54.4A1.933,1.933,0,0,1,44.846,54.4Z" transform="translate(-31.525 -22.125)" fill="#f36f21"/>
    </g>
    <path d="M55.019,35.142h0a2.772,2.772,0,0,0-2.825,2.765V50.651a1.4,1.4,0,0,1-1.383,1.383H19.733a1.4,1.4,0,0,1-1.383-1.383V19.573a1.4,1.4,0,0,1,1.383-1.383H43.778a2.758,2.758,0,0,0,2.765-2.765v-.06A2.758,2.758,0,0,0,43.778,12.6H15.525A2.822,2.822,0,0,0,12.7,15.425V54.919a2.822,2.822,0,0,0,2.825,2.825H55.019a2.822,2.822,0,0,0,2.825-2.825V37.907A2.771,2.771,0,0,0,55.019,35.142Z" transform="translate(6.613 6.343)" fill="#f36f21"/>
  </g>
</svg>